<?xml version="1.0" encoding="utf-8"?>
<!-- Generator: Adobe Illustrator 25.4.6, SVG Export Plug-In . SVG Version: 6.00 Build 0)  -->
<svg version="1.1" id="Layer_1" xmlns="http://www.w3.org/2000/svg" xmlns:xlink="http://www.w3.org/1999/xlink" x="0px" y="0px"
	 viewBox="0 0 141.7 141.7" style="enable-background:new 0 0 141.7 141.7;" xml:space="preserve">
<style type="text/css">
	.st0{fill:none;}
	.st1{fill:none;stroke:#58756F;stroke-width:1.25;stroke-linejoin:round;}
	.st2{fill:none;stroke:#5D736F;stroke-width:1.25;}
</style>
<path class="st0" d="M60.2,54.9h22c2.8,0,5,2.2,5,5v22c0,2.8-2.2,5-5,5h-22c-2.8,0-5-2.2-5-5v-22C55.2,57.2,57.4,54.9,60.2,54.9z"/>
<path class="st1" d="M60.2,55.5h22c2.4,0,4.4,2,4.4,4.4v22c0,2.4-2,4.4-4.4,4.4h-22c-2.4,0-4.4-2-4.4-4.4v-22
	C55.8,57.5,57.8,55.5,60.2,55.5z"/>
<circle class="st0" cx="71.2" cy="70.6" r="9"/>
<circle class="st2" cx="71.2" cy="70.6" r="8.4"/>
<circle class="st0" cx="82.2" cy="61.6" r="2"/>
<circle class="st2" cx="82.2" cy="61.6" r="1.4"/>
</svg>
