<?xml version="1.0" encoding="utf-8"?>
<svg xmlns="http://www.w3.org/2000/svg"
    xmlns:xlink="http://www.w3.org/1999/xlink" width="1960" height="153" preserveAspectRatio="xMidYMid" viewBox="0 0 1960 153" style="z-index:1;margin-right:-2px;display:block;background-repeat-y:initial;background-repeat-x:initial;background-color:rgb(241, 242, 243);animation-play-state:paused">
    <g transform="translate(980,76.5) scale(1,1) translate(-980,-76.5)" style="transform:matrix(1, 0, 0, 1, 0, 0);animation-play-state:paused">
        <linearGradient id="lg-0.23110363995247862" x1="0" x2="1" y1="0" y2="0" style="animation-play-state:paused">
            <stop stop-color="#003e77" offset="0" style="animation-play-state:paused"></stop>
            <stop stop-color="#003e77" offset="1" style="animation-play-state:paused"></stop>
        </linearGradient>
        <path d="M 0 0 L 0 39.725 Q 326.667 116.77 653.333 91.0361 T 1306.67 86.8573 T 1960 87.1324 L 1960 0 Z" fill="url(#lg-0.23110363995247862)" opacity="0.4" style="opacity:0.4;animation-play-state:paused"></path>
        <path d="M 0 0 L 0 57.5156 Q 326.667 175.614 653.333 142.047 T 1306.67 86.0572 T 1960 122.646 L 1960 0 Z" fill="url(#lg-0.23110363995247862)" opacity="0.4" style="opacity:0.4;animation-play-state:paused"></path>
        <path d="M 0 0 L 0 96.6583 Q 326.667 183.065 653.333 143.729 T 1306.67 127.7 T 1960 29.2249 L 1960 0 Z" fill="url(#lg-0.23110363995247862)" opacity="0.4" style="opacity:0.4;animation-play-state:paused"></path>
        <path d="M 0 0 L 0 62.1007 Q 326.667 99.5134 653.333 70.306 T 1306.67 122.708 T 1960 111.785 L 1960 0 Z" fill="url(#lg-0.23110363995247862)" opacity="0.4" style="opacity:0.4;animation-play-state:paused"></path>
        <path d="M 0 0 L 0 84.3323 Q 326.667 112.729 653.333 75.9307 T 1306.67 81.7526 T 1960 77.3639 L 1960 0 Z" fill="url(#lg-0.23110363995247862)" opacity="0.4" style="opacity:0.4;animation-play-state:paused"></path>
    </g>
</svg>